<svg width="36" height="35" viewBox="0 0 36 35" fill="none" xmlns="http://www.w3.org/2000/svg">
<path fill-rule="evenodd" clip-rule="evenodd" d="M17.7799 0C13.5575 0.00219077 9.47356 1.49769 6.25831 4.21907C3.04306 6.94046 0.906188 10.7103 0.22978 14.8545C-0.446628 18.9986 0.381529 23.2469 2.56619 26.8397C4.75085 30.4324 8.14953 33.1354 12.1545 34.4652C13.0381 34.6292 13.3709 34.0816 13.3709 33.616C13.3709 33.1503 13.3532 31.8003 13.3473 30.3243C8.39936 31.3932 7.35382 28.2363 7.35382 28.2363C6.54682 26.1864 5.38051 25.6476 5.38051 25.6476C3.76653 24.5523 5.50128 24.5728 5.50128 24.5728C7.28903 24.6988 8.22856 26.3973 8.22856 26.3973C9.81309 29.1002 12.3901 28.3183 13.4033 27.8615C13.5623 26.7165 14.0248 25.9375 14.5343 25.4953C10.5818 25.0502 6.42901 23.5332 6.42901 16.7567C6.40451 14.9993 7.0604 13.2997 8.26095 12.0097C8.07835 11.5645 7.46868 9.76646 8.43471 7.32412C8.43471 7.32412 9.92795 6.8497 13.3267 9.13684C16.242 8.34415 19.3178 8.34415 22.2331 9.13684C25.629 6.8497 27.1192 7.32412 27.1192 7.32412C28.0882 9.76061 27.4786 11.5587 27.2959 12.0097C28.5003 13.2999 29.1576 15.0025 29.1308 16.7626C29.1308 23.5537 24.9692 25.0502 21.0108 25.4865C21.647 26.0371 22.2154 27.1118 22.2154 28.7635C22.2154 31.1297 22.1948 33.0332 22.1948 33.616C22.1948 34.0874 22.5158 34.638 23.4171 34.4652C27.4226 33.1352 30.8216 30.4318 33.0062 26.8384C35.1908 23.2451 36.0185 18.9961 35.3414 14.8516C34.6642 10.707 32.5262 6.93715 29.3099 4.21623C26.0936 1.49531 22.0087 0.00080215 17.7858 0H17.7799Z" fill="#191717"/>
</svg>
