<svg width="36" height="36" viewBox="0 0 36 36" fill="none" xmlns="http://www.w3.org/2000/svg">
<path d="M17.7862 3.20291C22.5385 3.20291 23.1012 3.22375 24.9702 3.30713C26.7071 3.38355 27.6451 3.67536 28.2704 3.91853C29.0972 4.23812 29.6947 4.6272 30.313 5.24555C30.9383 5.87084 31.3204 6.4614 31.64 7.28818C31.8832 7.91348 32.175 8.85837 32.2514 10.5884C32.3348 12.4643 32.3556 13.027 32.3556 17.7723C32.3556 22.5246 32.3348 23.0874 32.2514 24.9563C32.175 26.6932 31.8832 27.6312 31.64 28.2565C31.3204 29.0833 30.9314 29.6808 30.313 30.2991C29.6877 30.9244 29.0972 31.3065 28.2704 31.6261C27.6451 31.8693 26.7002 32.1611 24.9702 32.2375C23.0943 32.3209 22.5315 32.3417 17.7862 32.3417C13.034 32.3417 12.4712 32.3209 10.6023 32.2375C8.86532 32.1611 7.92738 31.8693 7.30208 31.6261C6.4753 31.3065 5.87779 30.9175 5.25944 30.2991C4.63414 29.6738 4.25202 29.0833 3.93242 28.2565C3.68925 27.6312 3.39745 26.6863 3.32102 24.9563C3.23765 23.0804 3.21681 22.5176 3.21681 17.7723C3.21681 13.0201 3.23765 12.4573 3.32102 10.5884C3.39745 8.85142 3.68925 7.91348 3.93242 7.28818C4.25202 6.4614 4.64109 5.8639 5.25944 5.24555C5.88474 4.62025 6.4753 4.23812 7.30208 3.91853C7.92738 3.67536 8.87227 3.38355 10.6023 3.30713C12.4712 3.22375 13.034 3.20291 17.7862 3.20291ZM17.7862 0C12.9575 0 12.3531 0.0208432 10.4564 0.104216C8.56657 0.187589 7.26734 0.49329 6.14181 0.930998C4.96764 1.38955 3.97411 1.994 2.98753 2.98753C1.994 3.97411 1.38955 4.96764 0.930998 6.13486C0.49329 7.26734 0.187589 8.55962 0.104216 10.4494C0.0208432 12.3531 0 12.9575 0 17.7862C0 22.6149 0.0208432 23.2194 0.104216 25.1161C0.187589 27.0059 0.49329 28.3051 0.930998 29.4306C1.38955 30.6048 1.994 31.5983 2.98753 32.5849C3.97411 33.5715 4.96764 34.1829 6.13486 34.6345C7.26734 35.0722 8.55962 35.3779 10.4494 35.4613C12.3461 35.5447 12.9506 35.5655 17.7793 35.5655C22.608 35.5655 23.2124 35.5447 25.1091 35.4613C26.9989 35.3779 28.2982 35.0722 29.4237 34.6345C30.5909 34.1829 31.5844 33.5715 32.571 32.5849C33.5576 31.5983 34.169 30.6048 34.6206 29.4376C35.0583 28.3051 35.364 27.0128 35.4474 25.123C35.5308 23.2263 35.5516 22.6219 35.5516 17.7932C35.5516 12.9645 35.5308 12.36 35.4474 10.4633C35.364 8.57352 35.0583 7.27429 34.6206 6.14875C34.1829 4.96764 33.5784 3.97411 32.5849 2.98753C31.5983 2.00095 30.6048 1.38955 29.4376 0.937945C28.3051 0.500237 27.0128 0.194537 25.123 0.111164C23.2194 0.0208432 22.6149 0 17.7862 0Z" fill="#000100"/>
<path d="M17.7862 8.6499C12.7422 8.6499 8.64996 12.7421 8.64996 17.7862C8.64996 22.8302 12.7422 26.9225 17.7862 26.9225C22.8303 26.9225 26.9225 22.8302 26.9225 17.7862C26.9225 12.7421 22.8303 8.6499 17.7862 8.6499ZM17.7862 23.7126C14.5139 23.7126 11.8598 21.0586 11.8598 17.7862C11.8598 14.5138 14.5139 11.8598 17.7862 11.8598C21.0586 11.8598 23.7127 14.5138 23.7127 17.7862C23.7127 21.0586 21.0586 23.7126 17.7862 23.7126Z" fill="#000100"/>
<path d="M29.4167 8.28872C29.4167 9.46984 28.4579 10.4217 27.2838 10.4217C26.1027 10.4217 25.1508 9.46289 25.1508 8.28872C25.1508 7.1076 26.1096 6.15576 27.2838 6.15576C28.4579 6.15576 29.4167 7.11455 29.4167 8.28872Z" fill="#000100"/>
</svg>
